<?xml version="1.0" encoding="utf-8"?>
<!-- Generator: Adobe Illustrator 16.0.4, SVG Export Plug-In . SVG Version: 6.00 Build 0)  -->
<!DOCTYPE svg PUBLIC "-//W3C//DTD SVG 1.1//EN" "http://www.w3.org/Graphics/SVG/1.1/DTD/svg11.dtd">
<svg version="1.1" xmlns="http://www.w3.org/2000/svg" xmlns:xlink="http://www.w3.org/1999/xlink" x="0px" y="0px"
	 width="256.417px" height="41px" viewBox="0 0 256.417 41" enable-background="new 0 0 256.417 41" xml:space="preserve">
<g id="hintergrund" display="none">
	<rect x="0.25" y="-0.5" display="inline" width="256.167" height="42"/>
</g>
<g id="text__x2F__text" display="none">
	<text transform="matrix(1 0 0 1 6.4165 34.6704)" display="inline" fill="#FFFFFF" font-family="'Lato-Light'" font-size="40">DREI</text>
	<text transform="matrix(1 0 0 1 156.4165 34.6768)" display="inline" fill="#FFFFFF" font-family="'Lato-Light'" font-size="40">MAN</text>
	<g display="inline">
		<path fill="none" stroke="#FFFFFF" stroke-width="1.5" stroke-miterlimit="10" d="M127.86,33.332c-0.786,0.786-2.06,0.786-2.846,0
			L113.63,21.948c-0.786-0.786-0.786-2.06,0-2.846l11.384-11.384c0.786-0.787,2.06-0.787,2.846,0l11.385,11.384
			c0.785,0.786,0.785,2.06,0,2.846L127.86,33.332z"/>
		<circle fill="#FFFFFF" cx="126.382" cy="14.263" r="1.254"/>
		<circle fill="#FFFFFF" cx="126.403" cy="26.294" r="1.254"/>
		<circle fill="#FFFFFF" cx="126.395" cy="20.275" r="1.255"/>
	</g>
</g>
<g id="text__x2F__pfade">
	<g>
		<path fill="#FFFFFF" d="M34.437,20.51c0,2.187-0.327,4.154-0.98,5.9s-1.573,3.233-2.76,4.46c-1.187,1.227-2.606,2.167-4.26,2.82
			s-3.487,0.98-5.5,0.98h-10.32v-28.3h10.32c2.013,0,3.847,0.327,5.5,0.98s3.073,1.593,4.26,2.82c1.187,1.227,2.107,2.713,2.76,4.46
			C34.11,16.377,34.437,18.337,34.437,20.51z M32.316,20.51c0-1.973-0.273-3.733-0.82-5.28c-0.547-1.546-1.317-2.853-2.31-3.92
			c-0.994-1.067-2.19-1.88-3.59-2.44c-1.4-0.56-2.954-0.84-4.66-0.84h-8.26v24.98h8.26c1.707,0,3.26-0.28,4.66-0.84
			c1.4-0.56,2.596-1.373,3.59-2.44c0.993-1.066,1.763-2.373,2.31-3.92C32.043,24.264,32.316,22.497,32.316,20.51z"/>
		<path fill="#FFFFFF" d="M43.656,21.871v12.8h-2.04v-28.3h7.22c3.267,0,5.707,0.63,7.32,1.89c1.613,1.26,2.42,3.11,2.42,5.55
			c0,1.08-0.187,2.067-0.56,2.96c-0.374,0.894-0.91,1.677-1.61,2.35c-0.7,0.673-1.543,1.227-2.53,1.66
			c-0.987,0.434-2.1,0.717-3.34,0.85c0.32,0.2,0.606,0.467,0.86,0.8l9.74,12.24h-1.78c-0.213,0-0.397-0.04-0.55-0.12
			c-0.154-0.08-0.304-0.213-0.45-0.4l-9.06-11.48c-0.227-0.293-0.47-0.5-0.73-0.62s-0.664-0.18-1.21-0.18H43.656z M43.656,20.351
			h4.92c1.253,0,2.377-0.15,3.37-0.45s1.833-0.73,2.52-1.29c0.687-0.56,1.21-1.233,1.57-2.02c0.36-0.787,0.54-1.673,0.54-2.66
			c0-2.013-0.66-3.506-1.98-4.48c-1.32-0.973-3.24-1.46-5.76-1.46h-5.18V20.351z"/>
		<path fill="#FFFFFF" d="M92.696,34.67h-2.06v-28.3h2.06V34.67z"/>
	</g>
	<g>
		<path fill="#FFFFFF" d="M174.736,27.637c0.08-0.213,0.163-0.423,0.25-0.63c0.087-0.207,0.183-0.403,0.29-0.59l11.12-19.66
			c0.106-0.173,0.214-0.28,0.319-0.32c0.107-0.04,0.254-0.06,0.441-0.06h1.42v28.3h-1.801v-24.12c0-0.347,0.02-0.713,0.061-1.1
			l-11.141,19.78c-0.187,0.347-0.453,0.52-0.8,0.52h-0.319c-0.334,0-0.601-0.173-0.801-0.52l-11.439-19.8
			c0.039,0.387,0.06,0.76,0.06,1.12v24.12h-1.78v-28.3h1.4c0.187,0,0.336,0.02,0.449,0.06c0.113,0.04,0.224,0.147,0.33,0.32
			l11.42,19.68C174.417,26.81,174.589,27.21,174.736,27.637z"/>
		<path fill="#FFFFFF" d="M218.276,34.677h-1.58c-0.188,0-0.34-0.05-0.46-0.15s-0.214-0.23-0.28-0.39l-3.34-8.22h-13.9l-3.319,8.22
			c-0.054,0.147-0.147,0.273-0.28,0.38c-0.133,0.107-0.293,0.16-0.48,0.16h-1.56l11.58-28.3h2.04L218.276,34.677z M199.336,24.397
			h12.68l-5.78-14.3c-0.093-0.227-0.187-0.483-0.28-0.77c-0.094-0.287-0.187-0.59-0.279-0.91c-0.094,0.32-0.188,0.623-0.28,0.91
			c-0.094,0.287-0.187,0.55-0.28,0.79L199.336,24.397z"/>
		<path fill="#FFFFFF" d="M224.196,6.447c0.105,0.047,0.219,0.15,0.34,0.31l18.32,24.52c-0.041-0.4-0.061-0.787-0.061-1.16V6.377
			h1.801v28.3h-0.98c-0.307,0-0.553-0.133-0.74-0.4l-18.4-24.56c0.04,0.4,0.061,0.78,0.061,1.14v23.82h-1.78v-28.3h1
			C223.942,6.377,224.088,6.4,224.196,6.447z"/>
	</g>
	<g>
		<path fill="none" stroke="#FFFFFF" stroke-width="1.5" stroke-miterlimit="10" d="M127.86,33.332c-0.786,0.786-2.06,0.786-2.846,0
			L113.63,21.948c-0.786-0.786-0.786-2.06,0-2.846l11.384-11.384c0.786-0.787,2.06-0.787,2.846,0l11.385,11.384
			c0.785,0.786,0.785,2.06,0,2.846L127.86,33.332z"/>
		<circle fill="#FFFFFF" cx="126.382" cy="14.263" r="1.254"/>
		<circle fill="#FFFFFF" cx="126.403" cy="26.294" r="1.254"/>
		<circle fill="#FFFFFF" cx="126.395" cy="20.275" r="1.255"/>
	</g>
	<rect x="66.293" y="6.37" fill="#FFFFFF" width="16.958" height="1.708"/>
	<rect x="66.293" y="19.453" fill="#FFFFFF" width="16.958" height="1.708"/>
	<rect x="66.293" y="32.995" fill="#FFFFFF" width="16.958" height="1.708"/>
</g>
<g id="würfel">
</g>
</svg>
