<?xml version="1.0" encoding="utf-8"?>
<!-- Generator: Adobe Illustrator 16.0.4, SVG Export Plug-In . SVG Version: 6.00 Build 0)  -->
<!DOCTYPE svg PUBLIC "-//W3C//DTD SVG 1.1//EN" "http://www.w3.org/Graphics/SVG/1.1/DTD/svg11.dtd">
<svg version="1.1" id="Ebene_1" xmlns="http://www.w3.org/2000/svg" xmlns:xlink="http://www.w3.org/1999/xlink" x="0px" y="0px"
	 width="44px" height="44px" viewBox="-10 -10 44 44" enable-background="new -10 -10 44 44" xml:space="preserve">
<path fill="#FFFFFF" d="M12-10c-12.15,0-22,9.85-22,22s9.85,22,22,22s22-9.85,22-22S24.15-10,12-10z M8,19c-3.9,0-7-3.1-7-7
	c0-3.9,3.1-7,7-7c1.9,0,3.5,0.7,4.7,1.9l-1.9,1.8C10.3,8.2,9.4,7.6,8,7.6c-2.4,0-4.3,2-4.3,4.4c0,2.4,1.9,4.4,4.3,4.4
	c2.8,0,3.8-2,4-3H8V11h6.6c0.101,0.4,0.101,0.7,0.101,1.2C14.7,16.2,12,19,8,19z M23,13h-2v2h-2v-2h-2v-2h2V9h2v2h2V13z"/>
</svg>
