<?xml version="1.0" encoding="utf-8"?>
<!-- Generator: Adobe Illustrator 16.0.4, SVG Export Plug-In . SVG Version: 6.00 Build 0)  -->
<!DOCTYPE svg PUBLIC "-//W3C//DTD SVG 1.1//EN" "http://www.w3.org/Graphics/SVG/1.1/DTD/svg11.dtd">
<svg version="1.1" id="Ebene_1" xmlns="http://www.w3.org/2000/svg" xmlns:xlink="http://www.w3.org/1999/xlink" x="0px" y="0px"
	 width="24px" height="24px" viewBox="0 0 24 24" enable-background="new 0 0 24 24" xml:space="preserve">
<path fill="#FFFFFF" d="M18,20V10H6v10H18 M18,8c1.104,0,2,0.896,2,2v10c0,1.104-0.896,2-2,2H6c-1.11,0-2-0.9-2-2V10
	c0-1.104,0.896-2,2-2h9V6c0-1.657-1.344-3-3-3c-1.657,0-3,1.343-3,3H7c0-2.761,2.239-5,5-5c2.762,0,5,2.239,5,5v2H18 M12,17
	c-1.104,0-2-0.896-2-2s0.896-2,2-2s2,0.896,2,2S13.104,17,12,17z"/>
</svg>
