<?xml version="1.0" encoding="utf-8"?>
<!-- Generator: Adobe Illustrator 16.0.4, SVG Export Plug-In . SVG Version: 6.00 Build 0)  -->
<!DOCTYPE svg PUBLIC "-//W3C//DTD SVG 1.1//EN" "http://www.w3.org/Graphics/SVG/1.1/DTD/svg11.dtd">
<svg version="1.1" id="Ebene_1" xmlns="http://www.w3.org/2000/svg" xmlns:xlink="http://www.w3.org/1999/xlink" x="0px" y="0px"
	 width="44px" height="44px" viewBox="-10 -10 44 44" enable-background="new -10 -10 44 44" xml:space="preserve">
<path fill="#FFFFFF" d="M12-10c-12.15,0-22,9.85-22,22s9.85,22,22,22s22-9.85,22-22S24.15-10,12-10z M20.32,8.23
	c0.01,0.19,0.01,0.37,0.01,0.56C20.33,14.46,16,21,8.12,21c-2.42,0-4.68-0.71-6.58-1.93c0.34,0.039,0.68,0.06,1.02,0.06
	c2.02,0,3.87-0.68,5.33-1.84C6,17.26,4.43,16,3.89,14.311c0.26,0.049,0.53,0.08,0.8,0.08c0.39,0,0.77-0.051,1.13-0.15
	c-1.96-0.391-3.44-2.13-3.44-4.21c0-0.03,0-0.03,0-0.03c0.58,0.3,1.24,0.5,1.95,0.5C3.17,9.75,2.42,8.43,2.42,6.94
	c0-0.78,0.21-1.52,0.58-2.15c2.11,2.59,5.28,4.3,8.84,4.48c-0.07-0.31-0.11-0.64-0.11-0.98C11.73,5.92,13.65,4,16,4
	c1.26,0,2.37,0.5,3.16,1.36c0.97-0.2,1.89-0.55,2.72-1.05c-0.319,1.01-1,1.85-1.88,2.38c0.859-0.11,1.689-0.34,2.46-0.69
	C21.88,6.87,21.16,7.63,20.32,8.23z"/>
</svg>
