<?xml version="1.0" encoding="utf-8"?>
<!-- Generator: Adobe Illustrator 16.0.4, SVG Export Plug-In . SVG Version: 6.00 Build 0)  -->
<!DOCTYPE svg PUBLIC "-//W3C//DTD SVG 1.1//EN" "http://www.w3.org/Graphics/SVG/1.1/DTD/svg11.dtd">
<svg version="1.1" id="Ebene_1" xmlns="http://www.w3.org/2000/svg" xmlns:xlink="http://www.w3.org/1999/xlink" x="0px" y="0px"
	 width="24px" height="24px" viewBox="0 0 24 24" enable-background="new 0 0 24 24" xml:space="preserve">
<path fill="#FFFFFF" d="M12,13c-2.67,0-8,1.33-8,4v3h16v-3C20,14.33,14.67,13,12,13 M12,4C9.791,4,8,5.791,8,8s1.791,4,4,4
	s4-1.791,4-4S14.209,4,12,4 M12,14.9c2.971,0,6.1,1.459,6.1,2.1v1.1H5.9V17C5.9,16.359,9,14.9,12,14.9 M12,5.9
	c1.16,0,2.1,0.94,2.1,2.1l0,0c0,1.16-0.939,2.1-2.1,2.1l0,0c-1.16,0-2.1-0.94-2.1-2.1l0,0C9.9,6.84,10.84,5.9,12,5.9L12,5.9z"/>
</svg>
